<svg width="50" height="50" viewBox="0 0 50 50" fill="none" xmlns="http://www.w3.org/2000/svg">
<path d="M24.9139 50.0001C38.7686 50.0001 50 38.7621 50 24.8993C50 18.6407 47.7108 12.9171 43.9245 8.52108C28.3711 -7.04141 11.267 11.2446 24.362 24.3472C37.2698 37.2625 20.2948 54.6166 5.48755 40.7822C10.088 46.4088 17.0818 50.0001 24.9139 50.0001Z" fill="#A8E36E"/>
<path d="M0 25.1008C0 31.1269 2.12231 36.657 5.65985 40.9837C20.4671 54.818 37.4421 37.464 24.5343 24.5487C11.4393 11.446 28.5434 -6.83993 44.0968 8.72256C39.4964 3.38139 32.6859 0 25.0862 0C11.2315 0 0 11.238 0 25.1008Z" fill="#4DB243"/>
<path fill-rule="evenodd" clip-rule="evenodd" d="M14.6564 36.3447C14.539 36.2426 14.423 36.1385 14.3082 36.0324C8.25142 30.4297 8.25142 21.3459 14.3082 15.7432C20.365 10.1404 39.6643 9.76562 39.6643 9.76562C39.6643 9.76562 42.2986 30.4297 36.2419 36.0324C30.8626 41.0083 22.5151 41.565 16.4718 37.7024L21.3413 32.1747L29.1256 30.62L22.7713 30.0324L26.8096 26.229L31.4063 25.2975L27.7715 24.3017L31.4063 18.2362L26.2361 23.6006L24.2395 20.9944L24.9424 25.2975L21.3413 29.0527L19.672 24.3017V30.62L14.6564 36.3447Z" fill="white"/>
</svg>
